<?xml version="1.0" encoding="UTF-8"?>
<svg width="228px" height="48px" viewBox="0 0 228 48" version="1.1" xmlns="http://www.w3.org/2000/svg" xmlns:xlink="http://www.w3.org/1999/xlink">
    <!-- Generator: Sketch 52.1 (67048) - http://www.bohemiancoding.com/sketch -->
    <title>Group</title>
    <desc>Created with Sketch.</desc>
    <g id="Page-1" stroke="none" stroke-width="1" fill="none" fill-rule="evenodd">
        <g id="Group" transform="translate(0.000000, -3.000000)" fill="#000000">
            <path d="M54.3125,16.40625 L57.265625,16.40625 C57.453125,17.9179688 58.953125,18.890625 61.0976562,18.890625 C63.0898438,18.890625 64.53125,17.8710938 64.53125,16.453125 C64.53125,15.234375 63.6054688,14.5195312 61.4375,14.015625 L59.2460938,13.5117188 C56.1757812,12.8203125 54.734375,11.296875 54.734375,8.77734375 C54.734375,5.70703125 57.2421875,3.66796875 61.0273438,3.66796875 C64.578125,3.66796875 67.1445312,5.70703125 67.2851562,8.61328125 L64.390625,8.61328125 C64.1796875,7.125 62.8671875,6.1875 61.015625,6.1875 C59.0703125,6.1875 57.78125,7.125 57.78125,8.56640625 C57.78125,9.703125 58.6367188,10.3710938 60.734375,10.8515625 L62.6796875,11.296875 C66.1132812,12.0703125 67.5546875,13.5 67.5546875,16.078125 C67.5546875,19.3710938 65.0117188,21.421875 60.9101562,21.421875 C57.03125,21.421875 54.4648438,19.4765625 54.3125,16.40625 Z M74.9140625,18.9257812 C76.671875,18.9257812 77.984375,17.7890625 77.984375,16.3007812 L77.984375,15.28125 L75.0898438,15.46875 C73.4609375,15.5742188 72.6992188,16.1601562 72.6992188,17.203125 C72.6992188,18.28125 73.625,18.9257812 74.9140625,18.9257812 Z M74.0585938,21.2109375 C71.5859375,21.2109375 69.8164062,19.7109375 69.8164062,17.3671875 C69.8164062,15.046875 71.5625,13.7109375 74.6796875,13.5234375 L77.984375,13.3242188 L77.984375,12.2460938 C77.984375,10.9921875 77.140625,10.2890625 75.5703125,10.2890625 C74.234375,10.2890625 73.3203125,10.7578125 73.0507812,11.625 L70.3085938,11.625 C70.5429688,9.36328125 72.6640625,7.921875 75.7109375,7.921875 C79.0039062,7.921875 80.8554688,9.52734375 80.8554688,12.2460938 L80.8554688,21 L78.0546875,21 L78.0546875,19.2421875 L77.8554688,19.2421875 C77.140625,20.484375 75.734375,21.2109375 74.0585938,21.2109375 Z M89.8554688,18.4453125 C91.8828125,18.4453125 93.1015625,16.8984375 93.1015625,14.4492188 C93.1015625,12 91.8710938,10.4414062 89.8554688,10.4414062 C87.828125,10.4414062 86.6796875,12 86.6796875,14.4492188 C86.6796875,16.8984375 87.828125,18.4453125 89.8554688,18.4453125 Z M89.8554688,25.875 C86.5625,25.875 84.40625,24.421875 84.171875,22.21875 L87.0898438,22.21875 C87.2773438,23.0976562 88.3085938,23.6601562 89.9023438,23.6601562 C91.8945312,23.6601562 93.0546875,22.7226562 93.0546875,21.1171875 L93.0546875,18.6914062 L92.8554688,18.6914062 C92.1171875,20.0625 90.7226562,20.8125 88.9414062,20.8125 C85.7070312,20.8125 83.6914062,18.3046875 83.6914062,14.4492188 C83.6914062,10.5234375 85.71875,7.96875 88.9882812,7.96875 C90.734375,7.96875 92.2578125,8.8359375 92.9609375,10.2304688 L93.1601562,10.2304688 L93.1601562,8.1796875 L95.9609375,8.1796875 L95.9609375,21.046875 C95.9609375,24.0117188 93.59375,25.875 89.8554688,25.875 Z M104.902344,10.2304688 C103.167969,10.2304688 101.949219,11.4726562 101.820312,13.3476562 L107.855469,13.3476562 C107.796875,11.4492188 106.648438,10.2304688 104.902344,10.2304688 Z M107.878906,17.4726562 L110.632812,17.4726562 C110.105469,19.8046875 107.960938,21.2578125 104.9375,21.2578125 C101.164062,21.2578125 98.890625,18.7617188 98.890625,14.6367188 C98.890625,10.5117188 101.199219,7.921875 104.914062,7.921875 C108.570312,7.921875 110.761719,10.3476562 110.761719,14.390625 L110.761719,15.328125 L101.808594,15.328125 L101.808594,15.4804688 C101.878906,17.6132812 103.109375,18.9492188 105.019531,18.9492188 C106.460938,18.9492188 107.457031,18.421875 107.878906,17.4726562 Z M55.0859375,29.0898438 L61.4257812,29.0898438 C66.453125,29.0898438 69.3828125,32.1601562 69.3828125,37.46875 C69.3828125,42.8945312 66.4882812,46 61.4257812,46 L55.0859375,46 L55.0859375,29.0898438 Z M58.109375,31.703125 L58.109375,43.3867188 L61.0273438,43.3867188 C64.390625,43.3867188 66.3007812,41.2890625 66.3007812,37.515625 C66.3007812,33.8242188 64.34375,31.703125 61.0273438,31.703125 L58.109375,31.703125 Z M77.9140625,35.2304688 C76.1796875,35.2304688 74.9609375,36.4726562 74.8320312,38.3476562 L80.8671875,38.3476562 C80.8085938,36.4492188 79.6601562,35.2304688 77.9140625,35.2304688 Z M80.890625,42.4726562 L83.6445312,42.4726562 C83.1171875,44.8046875 80.9726562,46.2578125 77.9492188,46.2578125 C74.1757812,46.2578125 71.9023438,43.7617188 71.9023438,39.6367188 C71.9023438,35.5117188 74.2109375,32.921875 77.9257812,32.921875 C81.5820312,32.921875 83.7734375,35.3476562 83.7734375,39.390625 L83.7734375,40.328125 L74.8203125,40.328125 L74.8203125,40.4804688 C74.890625,42.6132812 76.1210938,43.9492188 78.03125,43.9492188 C79.4726562,43.9492188 80.46875,43.421875 80.890625,42.4726562 Z M86.3984375,36.8476562 C86.3984375,34.5273438 88.5078125,32.921875 91.53125,32.921875 C94.578125,32.921875 96.4882812,34.2695312 96.6992188,36.6015625 L93.96875,36.6015625 C93.7578125,35.6992188 92.9023438,35.125 91.5429688,35.125 C90.21875,35.125 89.2226562,35.7578125 89.2226562,36.6835938 C89.2226562,37.4101562 89.8320312,37.8554688 91.1210938,38.1484375 L93.3828125,38.6640625 C95.8320312,39.2148438 96.96875,40.2695312 96.96875,42.15625 C96.96875,44.6171875 94.7070312,46.2578125 91.5078125,46.2578125 C88.3085938,46.2578125 86.2929688,44.875 86.0703125,42.5429688 L88.9414062,42.5429688 C89.2226562,43.4921875 90.125,44.0546875 91.578125,44.0546875 C93.0429688,44.0546875 94.0625,43.4101562 94.0625,42.4609375 C94.0625,41.734375 93.5117188,41.2773438 92.2929688,41.0078125 L90.0195312,40.4804688 C87.5585938,39.9179688 86.3984375,38.78125 86.3984375,36.8476562 Z M99.9453125,46 L99.9453125,33.1796875 L102.839844,33.1796875 L102.839844,46 L99.9453125,46 Z M101.386719,31.0585938 C100.4375,31.0585938 99.6523438,30.2851562 99.6523438,29.3125 C99.6523438,28.3398438 100.4375,27.5546875 101.386719,27.5546875 C102.347656,27.5546875 103.121094,28.3398438 103.121094,29.3125 C103.121094,30.2851562 102.347656,31.0585938 101.386719,31.0585938 Z M111.945312,43.4453125 C113.972656,43.4453125 115.191406,41.8984375 115.191406,39.4492188 C115.191406,37 113.960938,35.4414062 111.945312,35.4414062 C109.917969,35.4414062 108.769531,37 108.769531,39.4492188 C108.769531,41.8984375 109.917969,43.4453125 111.945312,43.4453125 Z M111.945312,50.875 C108.652344,50.875 106.496094,49.421875 106.261719,47.21875 L109.179688,47.21875 C109.367188,48.0976562 110.398438,48.6601562 111.992188,48.6601562 C113.984375,48.6601562 115.144531,47.7226562 115.144531,46.1171875 L115.144531,43.6914062 L114.945312,43.6914062 C114.207031,45.0625 112.8125,45.8125 111.03125,45.8125 C107.796875,45.8125 105.78125,43.3046875 105.78125,39.4492188 C105.78125,35.5234375 107.808594,32.96875 111.078125,32.96875 C112.824219,32.96875 114.347656,33.8359375 115.050781,35.2304688 L115.25,35.2304688 L115.25,33.1796875 L118.050781,33.1796875 L118.050781,46.046875 C118.050781,49.0117188 115.683594,50.875 111.945312,50.875 Z M121.613281,46 L121.613281,33.1796875 L124.414062,33.1796875 L124.414062,35.2304688 L124.613281,35.2304688 C125.222656,33.8007812 126.511719,32.921875 128.421875,32.921875 C131.28125,32.921875 132.839844,34.6445312 132.839844,37.703125 L132.839844,46 L129.933594,46 L129.933594,38.3945312 C129.933594,36.4375 129.113281,35.453125 127.34375,35.453125 C125.609375,35.453125 124.519531,36.6484375 124.519531,38.5351562 L124.519531,46 L121.613281,46 Z M142.214844,41.40625 L145.167969,41.40625 C145.355469,42.9179688 146.855469,43.890625 149,43.890625 C150.992188,43.890625 152.433594,42.8710938 152.433594,41.453125 C152.433594,40.234375 151.507812,39.5195312 149.339844,39.015625 L147.148438,38.5117188 C144.078125,37.8203125 142.636719,36.296875 142.636719,33.7773438 C142.636719,30.7070312 145.144531,28.6679688 148.929688,28.6679688 C152.480469,28.6679688 155.046875,30.7070312 155.1875,33.6132812 L152.292969,33.6132812 C152.082031,32.125 150.769531,31.1875 148.917969,31.1875 C146.972656,31.1875 145.683594,32.125 145.683594,33.5664062 C145.683594,34.703125 146.539062,35.3710938 148.636719,35.8515625 L150.582031,36.296875 C154.015625,37.0703125 155.457031,38.5 155.457031,41.078125 C155.457031,44.3710938 152.914062,46.421875 148.8125,46.421875 C144.933594,46.421875 142.367188,44.4765625 142.214844,41.40625 Z M159.957031,50.6523438 C159.78125,50.6523438 158.996094,50.640625 158.808594,50.6054688 L158.808594,48.2265625 C158.972656,48.2617188 159.40625,48.2734375 159.605469,48.2734375 C160.835938,48.2734375 161.527344,47.8046875 161.902344,46.6210938 L162.054688,46.0585938 L157.472656,33.1796875 L160.660156,33.1796875 L163.660156,43.1875 L163.859375,43.1875 L166.847656,33.1796875 L169.917969,33.1796875 L165.289062,46.4101562 C164.199219,49.5976562 162.828125,50.6523438 159.957031,50.6523438 Z M171.769531,36.8476562 C171.769531,34.5273438 173.878906,32.921875 176.902344,32.921875 C179.949219,32.921875 181.859375,34.2695312 182.070312,36.6015625 L179.339844,36.6015625 C179.128906,35.6992188 178.273438,35.125 176.914062,35.125 C175.589844,35.125 174.59375,35.7578125 174.59375,36.6835938 C174.59375,37.4101562 175.203125,37.8554688 176.492188,38.1484375 L178.753906,38.6640625 C181.203125,39.2148438 182.339844,40.2695312 182.339844,42.15625 C182.339844,44.6171875 180.078125,46.2578125 176.878906,46.2578125 C173.679688,46.2578125 171.664062,44.875 171.441406,42.5429688 L174.3125,42.5429688 C174.59375,43.4921875 175.496094,44.0546875 176.949219,44.0546875 C178.414062,44.0546875 179.433594,43.4101562 179.433594,42.4609375 C179.433594,41.734375 178.882812,41.2773438 177.664062,41.0078125 L175.390625,40.4804688 C172.929688,39.9179688 171.769531,38.78125 171.769531,36.8476562 Z M186.125,30.0390625 L189.019531,30.0390625 L189.019531,33.2617188 L191.761719,33.2617188 L191.761719,35.5820312 L189.019531,35.5820312 L189.019531,41.875 C189.019531,43.140625 189.558594,43.703125 190.777344,43.703125 C191.1875,43.703125 191.410156,43.6796875 191.761719,43.6445312 L191.761719,45.9179688 C191.339844,46 190.800781,46.0585938 190.238281,46.0585938 C187.296875,46.0585938 186.125,45.0625 186.125,42.578125 L186.125,35.5820312 L184.097656,35.5820312 L184.097656,33.2617188 L186.125,33.2617188 L186.125,30.0390625 Z M199.929688,35.2304688 C198.195312,35.2304688 196.976562,36.4726562 196.847656,38.3476562 L202.882812,38.3476562 C202.824219,36.4492188 201.675781,35.2304688 199.929688,35.2304688 Z M202.90625,42.4726562 L205.660156,42.4726562 C205.132812,44.8046875 202.988281,46.2578125 199.964844,46.2578125 C196.191406,46.2578125 193.917969,43.7617188 193.917969,39.6367188 C193.917969,35.5117188 196.226562,32.921875 199.941406,32.921875 C203.597656,32.921875 205.789062,35.3476562 205.789062,39.390625 L205.789062,40.328125 L196.835938,40.328125 L196.835938,40.4804688 C196.90625,42.6132812 198.136719,43.9492188 200.046875,43.9492188 C201.488281,43.9492188 202.484375,43.421875 202.90625,42.4726562 Z M208.707031,46 L208.707031,33.1796875 L211.507812,33.1796875 L211.507812,35.2539062 L211.707031,35.2539062 C212.257812,33.7890625 213.570312,32.921875 215.269531,32.921875 C217.039062,32.921875 218.269531,33.8125 218.808594,35.2539062 L219.007812,35.2539062 C219.640625,33.8476562 221.117188,32.921875 222.898438,32.921875 C225.464844,32.921875 227.011719,34.5273438 227.011719,37.1875 L227.011719,46 L224.117188,46 L224.117188,37.9257812 C224.117188,36.2734375 223.332031,35.453125 221.773438,35.453125 C220.261719,35.453125 219.265625,36.5546875 219.265625,38.0195312 L219.265625,46 L216.441406,46 L216.441406,37.7148438 C216.441406,36.3085938 215.550781,35.453125 214.121094,35.453125 C212.679688,35.453125 211.613281,36.6367188 211.613281,38.2070312 L211.613281,46 L208.707031,46 Z" id="Sage-Design-System"></path>
            <g id="leaf-(1)" transform="translate(0.000000, 4.000000)" fill-rule="nonzero">
                <path d="M44.5203857,14.6919098 C45.9831543,7.3787689 46,1.59051514 46,1.34765625 C46,0.990387008 45.8582153,0.647506691 45.6051789,0.394821145 C45.3524933,0.142135598 45.009964,0 44.6523438,0 C44.4094849,0 38.6212311,0.0168457031 31.3080902,1.47961426 C28.7026214,2.00042725 26.2340241,2.64196777 23.9233551,3.39440918 C23.9075622,3.39897154 23.8924713,3.40423584 23.8770295,3.40950014 C22.3812714,3.89802554 20.9514923,4.43322754 19.5964661,5.01370244 C17.93927,5.72402959 16.3901673,6.50349429 14.954071,7.34823604 C14.910553,7.37139893 14.8680878,7.39666748 14.8273773,7.42439272 C12.5233765,8.79205322 10.5120697,10.3288727 8.81977848,12.0211639 C5.45941164,15.3815308 3.60884099,19.8488006 3.60884099,24.6006927 C3.60884099,28.9005584 5.12425232,32.9673919 7.90203859,36.1919403 L0.394821167,43.6995086 C-0.131607056,44.2259369 -0.131607056,45.0791016 0.394821167,45.6051789 C0.658035323,45.8683929 1.00267029,46 1.34765627,46 C1.69264226,46 2.03762824,45.8683929 2.30049138,45.6051789 L9.80805973,38.0979614 C13.0322571,40.8753968 17.0990905,42.3908081 21.3989564,42.3908081 C26.1511994,42.3908081 30.6184692,40.5405884 33.9788361,37.1805726 C35.6714782,35.4879303 37.2079468,33.4762726 38.5756073,31.1722718 C38.6033325,31.1315612 38.6286011,31.089096 38.651764,31.045578 C39.4965057,29.6091309 40.2759704,28.0603791 40.9859466,26.4035339 C41.5674743,25.0467529 42.1030273,23.61557 42.5922546,22.1180573 C42.5964661,22.105423 42.6006774,22.0924378 42.6045379,22.0798034 C43.3573304,19.7680817 43.9992218,17.2984314 44.5203857,14.6919098 Z M31.7846833,4.1328125 C36.7920685,3.12768555 41.1400147,2.82516475 43.2657318,2.73426821 C43.1748353,4.86033628 42.8723145,9.20828252 41.8671875,14.2153167 C41.489563,16.0964203 40.9859466,18.1866913 40.3201904,20.3464508 L27.5588685,20.3468018 L35.3984375,12.5075836 C35.9245148,11.9811554 35.9245148,11.1276398 35.3984375,10.6015625 C34.8720093,10.0751343 34.0188446,10.0751343 33.4924164,10.6015625 L25.6535492,18.4407806 L25.6535492,5.67980957 C27.8133087,5.01405337 29.9035797,4.51043701 31.7846833,4.1328125 Z M36.6723938,29.0665589 L18.8391113,29.0665589 L24.863556,23.0421143 L39.4115753,23.0417633 C38.6629944,25.0762329 37.7606964,27.121582 36.6723938,29.0665589 Z M22.9582367,6.58842466 L22.9582367,21.1357422 L16.9334411,27.1601868 L16.9330902,9.32760616 C18.878418,8.23930357 20.9234162,7.33700557 22.9582367,6.58842466 Z M6.30415348,24.6006927 C6.30415348,20.5689544 7.87431335,16.7783203 10.7254486,13.9271851 C11.7997132,12.8529206 12.9827728,11.8835907 14.2377777,11.0090179 L14.2384797,29.8554993 L9.81507878,34.2792511 C7.54231266,31.5688477 6.30415348,28.1800537 6.30415348,24.6006927 Z M32.0731659,35.2749023 C29.2220306,38.1256867 25.4310456,39.6954956 21.3989564,39.6954956 C17.8199463,39.6954956 14.4311524,38.4573364 11.7207489,36.1849212 L16.1437988,31.7618714 L34.991333,31.7618714 C34.1167603,33.0172272 33.1474304,34.2002868 32.0731659,35.2749023 Z" id="Shape"></path>
            </g>
        </g>
    </g>
</svg>