<svg width="48" height="240" viewBox="0 0 48 240" fill="none" xmlns="http://www.w3.org/2000/svg">
<rect width="48" height="240" fill="white"/>
<path fill-rule="evenodd" clip-rule="evenodd" d="M13 204C12.4477 204 12 204.448 12 205V214C12 214.265 12.1054 214.52 12.2929 214.707L24.2929 226.707C24.6834 227.098 25.3166 227.098 25.7071 226.707L34.7071 217.707C35.0976 217.317 35.0976 216.683 34.7071 216.293L22.7071 204.293C22.5196 204.105 22.2652 204 22 204H13ZM14 213.586V206H21.5858L32.5858 217L25 224.586L14 213.586ZM18 211C18 210.448 18.4477 210 19 210C19.5523 210 20 210.448 20 211C20 211.552 19.5523 212 19 212C18.4477 212 18 211.552 18 211ZM19 208C17.3431 208 16 209.343 16 211C16 212.657 17.3431 214 19 214C20.6569 214 22 212.657 22 211C22 209.343 20.6569 208 19 208Z" fill="black"/>
<path fill-rule="evenodd" clip-rule="evenodd" d="M15 158C14.4473 158 14 158.447 14 159V170H34V159C34 158.447 33.5527 158 33 158H15ZM34 172H14V173C14 173.553 14.4473 174 15 174H23.9972L24 174L24.0028 174H33C33.5527 174 34 173.553 34 173V172ZM12 171V159C12 157.343 13.3427 156 15 156H33C34.6573 156 36 157.343 36 159V171V173C36 174.657 34.6573 176 33 176H25V178H30C30.5523 178 31 178.448 31 179C31 179.552 30.5523 180 30 180H24H18C17.4477 180 17 179.552 17 179C17 178.448 17.4477 178 18 178H23V176H15C13.3427 176 12 174.657 12 173V171Z" fill="black"/>
<path fill-rule="evenodd" clip-rule="evenodd" d="M15 118C15 114.134 18.134 111 22 111C25.866 111 29 114.134 29 118C29 121.866 25.866 125 22 125C18.134 125 15 121.866 15 118ZM22 109C17.0294 109 13 113.03 13 118C13 122.971 17.0294 127 22 127C24.0162 127 25.8775 126.337 27.3779 125.217L33.2929 131.132C33.6834 131.523 34.3166 131.523 34.7071 131.132C35.0976 130.742 35.0976 130.109 34.7071 129.718L28.8394 123.85C30.1864 122.277 31 120.234 31 118C31 113.03 26.9706 109 22 109Z" fill="black"/>
<g clip-path="url(#clip0)">
<path fill-rule="evenodd" clip-rule="evenodd" d="M35.7071 60.2929C35.803 60.3888 35.8753 60.4993 35.9241 60.6172C35.8229 60.3731 35.6278 60.1778 35.3838 60.0763C35.5014 60.1251 35.6115 60.1973 35.7071 60.2929ZM35.0024 60C35.1375 60.0003 35.2663 60.0274 35.3838 60.0763C35.262 60.0258 35.1323 60.0003 35.0024 60ZM35.0024 60C35.0016 60 35.0008 60 35 60H34.9998C35.0007 60 35.0016 60 35.0024 60ZM13 60C12.4477 60 12 60.4477 12 61V83C12 83.5523 12.4477 84 13 84H35C35.5523 84 36 83.5523 36 83V75C36 74.4477 35.5523 74 35 74C34.4477 74 34 74.4477 34 75V82H14V62H21C21.5523 62 22 61.5523 22 61C22 60.4477 21.5523 60 21 60H13Z" fill="black"/>
</g>
<path fill-rule="evenodd" clip-rule="evenodd" d="M12 17C12 16.4477 12.4477 16 13 16H35C35.5523 16 36 16.4477 36 17C36 17.5523 35.5523 18 35 18H13C12.4477 18 12 17.5523 12 17ZM12 24C12 23.4477 12.4477 23 13 23H35C35.5523 23 36 23.4477 36 24C36 24.5523 35.5523 25 35 25H13C12.4477 25 12 24.5523 12 24ZM13 30C12.4477 30 12 30.4477 12 31C12 31.5523 12.4477 32 13 32H35C35.5523 32 36 31.5523 36 31C36 30.4477 35.5523 30 35 30H13Z" fill="black"/>
<defs>
<clipPath id="clip0">
<path d="M12 60H36V84H12V60Z" fill="white"/>
</clipPath>
</defs>
</svg>
