<svg viewBox="0 0 48 240" fill="none" xmlns="http://www.w3.org/2000/svg">
  <path fill="#000" fill-rule="evenodd" clip-rule="evenodd" d="M13 204a1 1 0 00-1 1v9a1 1 0 00.293.707l12 12a1 1 0 001.414 0l9-9a1 1 0 000-1.414l-12-12A.998.998 0 0022 204h-9zm1 9.586V206h7.586l11 11L25 224.586l-11-11zM18 211a1 1 0 112 0 1 1 0 01-2 0zm1-3a3 3 0 100 6 3 3 0 000-6zM15 158a1 1 0 00-1 1v11h20v-11a1 1 0 00-1-1H15zm19 14H14v1a1 1 0 001 1h18a1 1 0 001-1v-1zm-22-1v-12a3 3 0 013-3h18a3 3 0 013 3v14a3 3 0 01-3 3h-8v2h5a1 1 0 010 2H18a1 1 0 010-2h5v-2h-8a3 3 0 01-3-3v-2zM15 118a7 7 0 1114 0 7 7 0 01-14 0zm7-9a9 9 0 105.378 16.217l5.915 5.915a1 1 0 101.414-1.414l-5.868-5.868A9 9 0 0022 109zM13 60a1 1 0 00-1 1v22a1 1 0 001 1h22a1 1 0 001-1v-8a1 1 0 10-2 0v7H14V62h7a1 1 0 100-2h-8zm22.71.295a.997.997 0 01.29.702V69a1 1 0 11-2 0v-5.586l-9.293 9.293a1 1 0 01-1.414-1.414L32.586 62H27a1 1 0 110-2h8c.275 0 .524.111.705.29l.004.005zM12 17a1 1 0 011-1h22a1 1 0 110 2H13a1 1 0 01-1-1zm0 7a1 1 0 011-1h22a1 1 0 110 2H13a1 1 0 01-1-1zm1 6a1 1 0 100 2h22a1 1 0 100-2H13z"/>
</svg>
