<svg width="18" height="20" fill="none" xmlns="http://www.w3.org/2000/svg">
  <path fill-rule="evenodd" clip-rule="evenodd" d="M8.998 0a4.96 4.96 0 00-5 5v3.333c0 2.794 2.207 5 5 5 2.794 0 5-2.206 5-5V5c0-2.794-2.206-5-5-5zM5.665 5c0-1.873 1.46-3.333 3.333-3.333 1.873 0 3.334 1.46 3.334 3.333v3.333c0 1.873-1.46 3.334-3.334 3.334-1.873 0-3.333-1.46-3.333-3.334V5z" fill="#263240"/>
  <path d="M2.332 8.333a.833.833 0 00-1.667 0c0 4.346 3.27 7.88 7.5 8.293v1.707H4.832a.833.833 0 000 1.667h8.333a.833.833 0 000-1.667H9.832v-1.707a8.299 8.299 0 007.5-8.293.833.833 0 00-1.667 0A6.635 6.635 0 018.998 15a6.635 6.635 0 01-6.666-6.667z" fill="#263240"/>
</svg>
