<svg viewBox="0 0 24 24" xmlns="http://www.w3.org/2000/svg">
  <path d="M12.289 15.999L7.891 11.6A4.506 4.506 0 0012.29 16z"/>
  <path d="M6.39 10.1L4.635 8.345A.996.996 0 004.39 9v2.5a8.013 8.013 0 006.788 7.908.25.25 0 01.212.247V23a1 1 0 002 0v-3.345a.25.25 0 01.212-.247 8.028 8.028 0 001.656-.44l-1.602-1.602A6 6 0 016.39 11.5v-1.4zM16.134 13.994l1.07 1.088c.745-1 1.186-2.239 1.186-3.582V9a1 1 0 012 0v2.5a7.992 7.992 0 01-1.775 5.019l3.975 4.044a1.396 1.396 0 11-1.991 1.956L1.4 2.985a1.396 1.396 0 111.991-1.957l4.5 4.578V4.5a4.5 4.5 0 019 0v7a4.485 4.485 0 01-.757 2.494z" />
</svg>
