<svg viewBox="0 0 24 24" xmlns="http://www.w3.org/2000/svg">
  <path d="M1.013 2.308A1.395 1.395 0 113.123.482l17.933 20.702a1.395 1.395 0 11-2.11 1.827L1.014 2.308z"/>
  <path d="M16.205 19.868c.277-.404.44-.901.44-1.439V5.34c0-1.356-1.04-2.455-2.322-2.455h-12c-.237 0-.466.037-.68.107l14.562 16.877zM.443 3.897A2.538 2.538 0 000 5.338V18.43c0 1.356 1.04 2.455 2.323 2.455h12c.238 0 .467-.038.684-.108L.443 3.896zM23.802 5.39a.37.37 0 00-.39.008l-5.993 3.87V14.5l5.992 3.87a.371.371 0 00.476-.06.421.421 0 00.113-.29V5.748a.428.428 0 00-.053-.207.398.398 0 00-.145-.15z"/>
</svg>
